<?xml version="1.0" standalone="no"?><!DOCTYPE svg PUBLIC "-//W3C//DTD SVG 1.1//EN" "http://www.w3.org/Graphics/SVG/1.1/DTD/svg11.dtd"><svg t="1582601974863" class="icon" viewBox="0 0 1024 1024" version="1.1" xmlns="http://www.w3.org/2000/svg" p-id="1673" width="48" height="48" xmlns:xlink="http://www.w3.org/1999/xlink"><defs><style type="text/css"></style></defs><path d="M279.496 888.287l110.863-71.835a36 36 0 0 1 26.847-5.046C448.013 817.759 479.753 821 512 821c228.454 0 412-162.447 412-360.5S740.454 100 512 100 100 262.447 100 460.5c0 117.989 65.423 226.848 174.064 294.274a36 36 0 0 1 16.782 34.695l-11.35 98.818zM254.6 990.212c-25.538 16.548-58.814-4.088-55.341-34.32l17.522-152.568C99.18 722.424 28 597.037 28 460.5 28 220.592 245.607 28 512 28c266.393 0 484 192.592 484 432.5S778.393 893 512 893c-32.037 0-63.686-2.783-94.625-8.26L254.6 990.212zM287 408.5c-19.882 0-36-16.118-36-36s16.118-36 36-36h450c19.882 0 36 16.118 36 36s-16.118 36-36 36H287z m75 180c-19.882 0-36-16.118-36-36s16.118-36 36-36h300c19.882 0 36 16.118 36 36s-16.118 36-36 36H362z" p-id="1674" fill="#ffffff"></path></svg>