<?xml version="1.0" standalone="no"?><!DOCTYPE svg PUBLIC "-//W3C//DTD SVG 1.1//EN" "http://www.w3.org/Graphics/SVG/1.1/DTD/svg11.dtd"><svg t="1581517660134" class="icon" viewBox="0 0 1024 1024" version="1.1" xmlns="http://www.w3.org/2000/svg" p-id="42721" xmlns:xlink="http://www.w3.org/1999/xlink" width="81" height="81"><defs><style type="text/css"></style></defs><path d="M796.444444 1024H227.555556a113.777778 113.777778 0 0 1-113.777778-113.777778V170.666667a113.777778 113.777778 0 0 1 113.777778-113.777778h113.777777v170.666667h341.333334V56.888889h113.777777a113.777778 113.777778 0 0 1 113.777778 113.777778v739.555555a113.777778 113.777778 0 0 1-113.777778 113.777778z m-10.581333-615.879111a31.744 31.744 0 0 0-45.795555 0l-297.756445 306.631111-160.312889-164.977778a31.744 31.744 0 0 0-45.795555 0 34.133333 34.133333 0 0 0 0 47.160889l183.239111 188.700445a31.744 31.744 0 0 0 45.795555 0L785.863111 455.111111a34.133333 34.133333 0 0 0 0-46.990222zM568.888889 170.666667H455.111111a56.888889 56.888889 0 0 1-56.888889-56.888889V56.888889a56.888889 56.888889 0 0 1 56.888889-56.888889h113.777778a56.888889 56.888889 0 0 1 56.888889 56.888889v56.888889a56.888889 56.888889 0 0 1-56.888889 56.888889z" fill="#fabe00" p-id="42722"></path></svg>